<svg width="169" height="167" viewBox="0 0 169 167" fill="none" xmlns="http://www.w3.org/2000/svg">
<g clip-path="url(#clip0_89_420)">
<path d="M144.88 131.77C144.88 131.77 144.88 131.77 144.87 131.77C144.36 111.78 144 91.79 143.59 71.8C143.41 63.25 143.18 54.69 143.07 46.14C143.05 43.71 142.13 41.39 139.63 42.26C93.9202 58.05 67.1502 44.77 48.4202 30.46C45.3602 28.12 44.3502 30.16 44.3502 34.11C44.3502 51.22 44.8102 85.44 45.0402 85.44C45.0402 102.66 45.0702 119.86 44.9902 137.07C44.9802 139.59 45.8802 140.59 48.3802 140.36C50.8702 140.13 53.3602 140.01 55.8602 139.92C84.3802 138.81 112.92 137.67 141.45 136.66C141.7 136.65 141.96 136.64 142.18 136.61V139.28C129.3 139.79 58.0002 142.07 47.7602 142.56C43.0402 142.79 42.9902 142.86 42.9902 138.28C42.9702 120.59 42.3602 85.21 42.0402 85.21V43.4C42.0402 39.17 42.0802 37.28 42.0202 33.05C41.9702 29.96 41.6302 29.72 38.9402 31.02C36.8002 32.05 20.1802 40 14.2002 43.29C13.5302 43.66 12.9102 44.47 12.4602 45.41L19.0102 124.84H16.6902L9.33022 59.01C9.00022 59.31 8.64022 59.62 8.24022 59.94C7.06022 60.89 6.27022 62.32 5.11022 63.31C0.910218 66.91 -0.0397825 71.87 0.000217541 76.85C0.210218 100.16 0.670218 123.48 1.07022 146.79C1.07022 147.36 1.04022 148.01 1.28022 148.49C1.66022 149.21 2.17022 150.27 2.79022 150.39C5.73022 150.98 8.18022 152.33 10.6802 153.98C12.0602 154.9 13.0502 155.51 13.3502 157.24C13.8102 159.69 14.9302 161.92 17.6702 162.44C22.2902 163.33 26.9302 164.18 31.6002 164.74C34.4802 165.08 37.3702 166.08 40.2802 166.1C40.3602 166.1 40.4202 166.1 40.5002 166.1C40.7202 166.1 40.9402 166.09 41.1702 166.07C47.8702 165.82 53.5302 165.36 60.3402 165.11C64.9402 164.94 128.54 160.03 141.55 159.65C142.64 159.62 143.41 159.6 143.79 159.59C143.92 159.59 144.72 159.59 144.88 159.56V133.89C144.9 133.6 144.91 133.28 144.9 132.94C144.89 132.71 144.89 132.48 144.88 132.25V131.78V131.77ZM50.0402 129.4C50.0002 126.57 49.9702 123.73 49.9402 120.9C52.2302 121.27 54.7102 121.99 55.4902 123.08C57.5602 125.98 53.3802 130.01 51.6102 131.76C51.2202 132.15 50.8302 132.51 50.4402 132.89C50.1402 132.19 50.0602 131.09 50.0402 129.41V129.4ZM141.23 126.47C141.2 126.89 140.93 127.3 140.76 127.7C140.63 127.37 140.53 127.02 140.34 126.74C140.29 126.68 139.76 126.84 139.62 127.03C139.18 127.57 138.81 128.17 138.41 128.76C137.74 128.27 136.75 127.92 136.46 127.27C135.92 125.98 135.58 124.54 135.48 123.13C135.29 120.55 135.35 95.71 135.3 93.12C135.29 92.74 135.26 92.36 135.24 91.98C135.17 92.4 133.71 92.81 133.69 93.23C133.64 95.05 133.48 119.13 133.62 120.94C133.94 124.97 135.09 129.39 128.95 128.83C123.45 128.32 82.0102 100.83 81.2102 101.13C81.9902 101.3 126.47 130.64 127.25 130.82C127.52 130.88 127.86 131.88 128.12 131.97C127.76 132.07 119.69 132.29 116.06 132.35C106.74 132.49 66.0202 133.64 54.9902 134.05C53.3702 134.11 52.2902 134.12 51.5602 133.89C53.1502 132.92 54.6502 131.85 55.9502 130.62C58.4902 128.22 63.0002 127.3 63.0002 122.88C63.0002 120.82 61.4102 120.54 61.0502 119.59C59.3302 116.54 60.2602 113.04 61.1502 109.87C61.5402 108.47 62.1502 107.25 62.3602 105.79C62.5802 104.28 62.2602 102.8 62.5702 101.32C61.1402 104.78 59.9602 108.52 58.7502 112.12C57.4902 115.86 57.2302 118.98 52.7002 119.72C51.7702 119.87 50.8402 119.95 49.9102 120.04C49.7402 105.98 49.5802 91.92 49.4002 77.86C49.2802 67.78 49.1002 57.69 48.9802 47.61C48.9502 44.27 49.0602 40.94 49.0302 37.59C49.0102 35.82 50.3002 35.3 51.3502 35.93C55.8902 38.66 68.5302 47.1 72.4402 48.93C83.7402 54.23 97.7102 56.49 121.45 50.62C121.82 50.53 122.45 50.29 123.13 50.01C113.02 56.11 78.8802 79.57 57.6502 94.24C57.2602 94.51 57.3002 95.34 57.1402 95.91C91.9402 72.18 126.16 51.99 127.2 51.99C128.93 51.99 142.02 77.07 117.51 66.06C116.71 65.7 133.07 75.53 133.21 78.95C133.21 79.17 133.42 79.38 133.53 79.6C133.58 79.32 133.67 79.05 133.69 78.77C133.75 77.14 133.81 59.66 133.82 58.02C133.84 55.41 135.5 54.48 137.74 54.39C138.33 54.37 139.29 55.07 139.5 55.64C139.88 56.69 139.93 57.9 139.96 59.04C140.43 80.36 140.87 101.69 141.3 123.01C141.32 124.16 141.3 125.32 141.2 126.47H141.23ZM44.1302 163.29C43.6802 162.63 43.5502 161.36 43.5502 158.95C43.5002 156.11 44.5502 154.53 47.2002 154.6L129.01 150.37L129.37 157.9C105.83 159.3 59.3402 162.39 44.1202 163.28L44.1302 163.29ZM142.19 157.22C141.99 157.22 141.78 157.23 141.54 157.25C139.75 157.32 136.69 157.48 132.73 157.71C132.09 157.25 131.86 156.39 131.92 155.14C131.98 153.51 131.8 151.87 131.82 150.24C131.83 148.65 131.27 148.04 129.58 148.2C126.23 148.51 122.86 148.6 119.5 148.78C95.7002 150.07 71.9002 151.4 48.1002 152.63C43.0502 153 43.4902 152.66 43.3802 148.27C43.2702 145.93 43.2902 145.21 45.6602 145.13C52.7702 144.89 58.6202 144.4 65.7202 144.14C70.3202 143.97 129.19 142.04 142.19 141.66V157.21V157.22Z" fill="black"/>
<path d="M160.6 29.31C157.65 26.08 155.31 21.36 151.01 21.61C152.27 14.41 153.31 3.81 152.32 0C151.6 3.09 145.17 17.62 141.57 19.76C144.99 23.18 149.7 22.34 153.46 25.18C150.49 28.58 148.06 32.87 144.2 35.55C145.28 37.23 146.52 38.87 147.7 40.5C152.11 37.3 153.64 29.43 160.6 29.32V29.31Z" fill="black"/>
<path d="M149.29 54.64C155.08 55.87 163.61 57.15 168.31 60.54C166.66 57.45 162.48 53.26 158.85 52.75C159.63 50.6 160.9 48.24 162.75 46.65C159.12 46.15 155.51 45.5 151.9 44.92C149.52 45.24 148.65 45.91 148.17 46.37C150.59 46.9 154.46 48.15 156.75 47.26C154.24 49.54 151.6 52.09 149.29 54.65V54.64Z" fill="black"/>
</g>
<defs>
<clipPath id="clip0_89_420">
<rect width="168.3" height="166.1" fill="white"/>
</clipPath>
</defs>
</svg>
